#!OML:ASF F:\VICON\USERDATA\INSTALL\rory3\rory3.ASF
:FULLY-SPECIFIED
:DEGREES
73
root 0.5440864751695162 18.0174230445785 24.1867429217368 5.2097527674238115 -1.0438247946948105 -2.926338549302141
lfemur -21.549403928087305 3.809883955624651 -16.477028361165605
ltibia 65.55532695060116
lfoot 4.566571520662191 -10.77810482748847
ltoes -13.12679537463105
rfemur -17.067489903429678 4.806879835511102 29.581242174777135
rtibia 50.35541784461126
rfoot 17.81064780993624 -4.659767103150306
rtoes 6.73331436862296
lowerback 15.490693952729218 -0.2249515180362166 1.1790677614986285
upperback -0.5287101160209615 0.3677263986246593 2.7744597610401733
thorax -8.406311321907557 -0.3666383835836605 2.6627721583027593
lowerneck -18.298888450328157 -3.832127770084844 -3.0927128397061314
upperneck 9.291842985157173 -3.4952084773741445 5.570336010453702
head 5.467894521450439 -1.6754153545762231 1.7712573117578314
lclavicle -1.5429273205185298e-15 -3.3056559928271908e-15
lhumerus -52.33176995653791 -8.799177865514213 90.18087299269862
lradius 115.72573957785852
lwrist 31.096720914126642
lhand -24.03220731023525 4.343028823425939
lfingers 7.12502
lthumb 2.215766628884583 34.12664055514548
rclavicle -1.5439972101510741e-15 -3.295956162574633e-15
rhumerus -45.34516145647018 15.294599080098044 -97.65825133790607
rradius 99.51775259523819
rwrist -24.941852415215667
rhand -18.297478935510338 39.80588278128481
rfingers 7.12502
rthumb 8.32053690753949 10.25643221138487
74
root 0.5316629951937218 18.028894628891543 24.667869815904723 5.195657849721682 -1.362841086888753 -3.1683488373464836
lfemur -24.88464011586283 4.357508618814349 -16.173765171962096
ltibia 74.6067925967473
lfoot 6.860674531742761 -10.760598869260173
ltoes -13.602578361915493
rfemur -15.564932193198686 4.982355454269791 29.97244765040144
rtibia 50.08983674359948
rfoot 17.639767234592295 -4.783727306185416
rtoes 4.711528467872407
lowerback 15.602225974511192 -0.07647052050106873 1.693711256542532
upperback -0.4719360266625492 0.7242244942860546 2.698217521557661
thorax -8.558398969310513 -0.2981573540939986 2.3751222179132356
lowerneck -18.295150217434767 -3.824663203470902 -3.0935572220477763
upperneck 9.33578819399451 -3.6194310535812217 5.560018004285251
head 5.471828568686499 -1.7268572167029177 1.7585171090815042
lclavicle -1.5429272750678291e-15 -3.3056559890152745e-15
lhumerus -53.34973789844735 -8.5567661088273 90.03320496417122
lradius 114.71673083244869
lwrist 31.15640394909704
lhand -24.00561129118667 4.400481940250499
lfingers 7.12502
lthumb 2.2172779845650927 34.14667383151898
rclavicle -1.5439972779192164e-15 -3.295956211527035e-15
rhumerus -45.075513893145086 15.39514408152618 -97.9041387497332
rradius 99.35684688667591
rwrist -24.741994455384653
rhand -18.356294681729562 39.827352369501064
rfingers 7.12502
rthumb 8.310236815207885 10.22153044457367
75
root 0.523052014416927 18.032500295918762 25.19276179632468 5.1925043421458845 -1.7479058137419148 -3.3541653051884954
lfemur -27.91556092010788 4.624277563401005 -16.09305568226909
ltibia 82.45229197829694
lfoot 6.9459318366371985 -10.581081181029266
ltoes -13.886778837716967
rfemur -13.459022265683142 5.247718967072063 30.512687698108145
rtibia 49.569712281651626
rfoot 17.882216802308342 -5.18846035689257
rtoes 2.1668400676295514
lowerback 15.675904171017539 0.1059837939204703 2.1470127746758694
upperback -0.44488234637729196 1.1208504903712204 2.5619736950884704
thorax -8.706931930523053 -0.1912939704563792 2.0236651347577235
lowerneck -18.287929728472157 -3.826540849308376 -3.095116616556391
upperneck 9.368616086766592 -3.7426125462942057 5.587281058761202
head 5.478324950752515 -1.7854198470611409 1.7489943438988858
lclavicle -1.542927151403285e-15 -3.305655932515788e-15
lhumerus -53.74316607964352 -8.085775398752014 90.06356565545178
lradius 113.59405819031356
lwrist 31.214621506499288
lhand -23.979878036925776 4.449927624624733
lfingers 7.12502
lthumb 2.2211056410929544 34.16118610263943
rclavicle -1.5439972766952005e-15 -3.2959562099873422e-15
rhumerus -44.69592815878291 15.476617694153061 -97.92815701550218
rradius 99.6114756395919
rwrist -24.39313171919766
rhand -18.412490757190934 39.874832920968736
rfingers 7.12502
rthumb 8.2916145244068 10.182470285545875
76
root 0.5180841828511331 18.016775961820606 25.745755567817973 5.201253964077711 -2.1730063279944307 -3.483614696939488
lfemur -30.55391855140986 4.527956538048305 -16.084079170774423
ltibia 87.97532236689929
lfoot 8.240899650984701 -9.518664386992057
ltoes -13.951380870136482
rfemur -12.432055038823776 5.094213863084827 30.741794251696405
rtibia 49.037927675462164
rfoot 18.08420269418119 -5.603059681824071
rtoes -0.2688800244435692
lowerback 15.716763764918003 0.3077283831285632 2.533774709633494
upperback -0.4670325530626741 1.53038898133715 2.4172273385736327
thorax -8.837791091226656 -0.04815943546388435 1.614371623677822
lowerneck -18.26433335736371 -3.8419119895107903 -3.100361555169518
upperneck 9.402289956125035 -3.876937524992489 5.614825605966505
head 5.484856651413877 -1.8484296996836043 1.7388783678940365
lclavicle -1.5429270731133158e-15 -3.305655868875494e-15
lhumerus -54.43943815377864 -7.688804020866843 90.08480642477248
lradius 112.35105285488473
lwrist 31.20882535269799
lhand -23.964436600775 4.480247049574469
lfingers 7.12502
lthumb 2.2284893403720463 34.1724155193431
rclavicle -1.54399727618487e-15 -3.2959562097753296e-15
rhumerus -45.08936665273443 15.080706540737436 -98.10153293459055
rradius 100.33887446651943
rwrist -24.042839920541795
rhand -18.464771022713517 39.930966271602294
rfingers 7.12502
rthumb 8.27823271346718 10.169368743537117
